<svg width="118" height="127" viewBox="0 0 118 127" fill="none" xmlns="http://www.w3.org/2000/svg">
<g id="Group 23">
<path id="Vector" d="M82 29.6667H71.4333L67.3 25.1667C66.6788 24.4846 65.9222 23.9397 65.0785 23.5666C64.2348 23.1936 63.3225 23.0006 62.4 23H48.2667C46.4 23 44.6 23.8 43.3333 25.1667L39.2333 29.6667H28.6667C25 29.6667 22 32.6667 22 36.3333V76.3333C22 80 25 83 28.6667 83H82C85.6667 83 88.6667 80 88.6667 76.3333V36.3333C88.6667 32.6667 85.6667 29.6667 82 29.6667ZM55.3333 73C46.1333 73 38.6667 65.5333 38.6667 56.3333C38.6667 47.1333 46.1333 39.6667 55.3333 39.6667C64.5333 39.6667 72 47.1333 72 56.3333C72 65.5333 64.5333 73 55.3333 73Z" fill="#ADBAFF"/>
<path id="Vector_2" d="M86.75 28.625C97.1094 28.625 101.625 24.2666 101.625 13.75C101.625 24.2666 106.109 28.625 116.5 28.625C106.109 28.625 101.625 33.1088 101.625 43.5C101.625 33.1088 97.1094 28.625 86.75 28.625ZM74 10.5625C80.6598 10.5625 83.5625 7.76175 83.5625 1C83.5625 7.76175 86.4461 10.5625 93.125 10.5625C86.4461 10.5625 83.5625 13.4461 83.5625 20.125C83.5625 13.4461 80.6598 10.5625 74 10.5625Z" stroke="#ADBAFF" stroke-width="1.5" stroke-linejoin="round"/>
<path id="Vector_3" d="M13.75 110.625C24.1094 110.625 28.625 106.267 28.625 95.75C28.625 106.267 33.1088 110.625 43.5 110.625C33.1088 110.625 28.625 115.109 28.625 125.5C28.625 115.109 24.1094 110.625 13.75 110.625ZM1 92.5625C7.65975 92.5625 10.5625 89.7617 10.5625 83C10.5625 89.7617 13.4461 92.5625 20.125 92.5625C13.4461 92.5625 10.5625 95.4461 10.5625 102.125C10.5625 95.4461 7.65975 92.5625 1 92.5625Z" stroke="#ADBAFF" stroke-width="1.5" stroke-linejoin="round"/>
<path id="Vector_4" d="M82 29.6667H71.4333L67.3 25.1667C66.6788 24.4846 65.9222 23.9397 65.0785 23.5666C64.2348 23.1936 63.3225 23.0006 62.4 23H48.2667C46.4 23 44.6 23.8 43.3333 25.1667L39.2333 29.6667H28.6667C25 29.6667 22 32.6667 22 36.3333V76.3333C22 80 25 83 28.6667 83H82C85.6667 83 88.6667 80 88.6667 76.3333V36.3333C88.6667 32.6667 85.6667 29.6667 82 29.6667ZM55.3333 73C46.1333 73 38.6667 65.5333 38.6667 56.3333C38.6667 47.1333 46.1333 39.6667 55.3333 39.6667C64.5333 39.6667 72 47.1333 72 56.3333C72 65.5333 64.5333 73 55.3333 73Z" fill="#ADBAFF"/>
<path id="Vector_5" d="M86.75 28.625C97.1094 28.625 101.625 24.2666 101.625 13.75C101.625 24.2666 106.109 28.625 116.5 28.625C106.109 28.625 101.625 33.1088 101.625 43.5C101.625 33.1088 97.1094 28.625 86.75 28.625ZM74 10.5625C80.6598 10.5625 83.5625 7.76175 83.5625 1C83.5625 7.76175 86.4461 10.5625 93.125 10.5625C86.4461 10.5625 83.5625 13.4461 83.5625 20.125C83.5625 13.4461 80.6598 10.5625 74 10.5625Z" stroke="#ADBAFF" stroke-width="1.5" stroke-linejoin="round"/>
<path id="Vector_6" d="M13.75 110.625C24.1094 110.625 28.625 106.267 28.625 95.75C28.625 106.267 33.1088 110.625 43.5 110.625C33.1088 110.625 28.625 115.109 28.625 125.5C28.625 115.109 24.1094 110.625 13.75 110.625ZM1 92.5625C7.65975 92.5625 10.5625 89.7617 10.5625 83C10.5625 89.7617 13.4461 92.5625 20.125 92.5625C13.4461 92.5625 10.5625 95.4461 10.5625 102.125C10.5625 95.4461 7.65975 92.5625 1 92.5625Z" stroke="#ADBAFF" stroke-width="1.5" stroke-linejoin="round"/>
</g>
</svg>
