<svg width="67" height="34" viewBox="0 0 67 34" fill="none" xmlns="http://www.w3.org/2000/svg">
<path id="Vector" d="M16.6667 20H3.33333C1.5 20 0 18.5 0 16.6667C0 14.8333 1.5 13.3333 3.33333 13.3333H16.6667C18.5 13.3333 20 14.8333 20 16.6667C20 18.5 18.5 20 16.6667 20ZM13.3333 3.33333C13.3333 1.5 11.8333 0 10 0H6.66667C4.83333 0 3.33333 1.5 3.33333 3.33333C3.33333 5.16667 4.83333 6.66667 6.66667 6.66667H10C11.8333 6.66667 13.3333 5.16667 13.3333 3.33333ZM66.6667 16.6667C66.6667 25.8667 59.2 33.3333 50 33.3333H6.66667C4.83333 33.3333 3.33333 31.8333 3.33333 30C3.33333 28.1667 4.83333 26.6667 6.66667 26.6667H36.6667C35.2667 24.7333 34.1667 22.4667 33.6667 20H26.6667C24.8333 20 23.3333 18.5 23.3333 16.6667C23.3333 14.8333 24.8333 13.3333 26.6667 13.3333H33.6667C34.1667 10.8667 35.2667 8.6 36.6667 6.66667H20C18.1667 6.66667 16.6667 5.16667 16.6667 3.33333C16.6667 1.5 18.1667 0 20 0H50C59.2 0 66.6667 7.46667 66.6667 16.6667Z" fill="#ADBAFF"/>
</svg>
